<svg xmlns="http://www.w3.org/2000/svg" xmlns:xlink="http://www.w3.org/1999/xlink" width="100%" height="100%" version="1.1" viewBox="0 0 60 60" xml:space="preserve" style="fill-rule:evenodd;clip-rule:evenodd;stroke-linejoin:round;stroke-miterlimit:2"><g><path d="M13.626,17.938C13.626,18.8 12.928,19.5 12.064,19.5C11.202,19.5 10.502,18.8 10.502,17.938C10.502,17.075 11.202,16.375 12.064,16.375C12.928,16.375 13.626,17.074 13.626,17.938ZM12.113,4.5C9.595,4.5 7.701,6.183 7.701,9.5L10.172,9.5C10.172,8.06 10.739,6.882 12.062,6.882C12.842,6.882 13.669,7.399 13.74,8.389C13.817,9.43 13.261,9.958 12.557,10.628C10.73,12.365 10.797,13.158 10.797,15.125L13.262,15.125C13.262,14.217 13.164,13.558 14.411,12.213C15.242,11.316 16.277,10.199 16.299,8.499C16.328,6.022 14.579,4.5 12.113,4.5Z" transform="matrix(3.8,0,0,3.8,-15.5992,-15.6)" style="fill:#fff"/></g></svg>